<?xml version="1.0" encoding="UTF-8" standalone="no"?>
<!DOCTYPE svg PUBLIC "-//W3C//DTD SVG 1.1//EN" "http://www.w3.org/Graphics/SVG/1.1/DTD/svg11.dtd">
<svg version="1.1" xmlns="http://www.w3.org/2000/svg" xmlns:xlink="http://www.w3.org/1999/xlink" preserveAspectRatio="xMidYMid meet" viewBox="0 0 640 640" width="24" height="24"><defs><path d="M568.89 496.66C533.77 546.43 482.99 585.24 425.89 606.34C365.69 628.58 299.18 631.1 237.44 613.91C177.95 597.35 124.72 562.3 85.1 514.98C45.32 467.48 20.89 407.37 15.78 345.68C10.51 282.17 25.24 218.23 57.83 163.54C89.28 110.76 136.65 68.53 192.36 42.61C249.84 15.86 316.11 8.28 378.27 20.32C439.23 32.14 495.37 62.79 538.69 107.14C582.12 151.59 610.85 208.9 621.16 270.2C623.91 286.53 625.14 303.3 625.16 319.99C625.18 329.55 640.01 329.55 640 319.99C639.9 255.57 620.37 191.97 583.83 138.87C547.99 86.79 497.17 46.39 438.62 22.72C378.03 -1.78 309.97 -6.34 246.43 8.44C185.04 22.71 128.53 55.95 85.62 102.01C42.42 148.36 13.55 207.47 3.82 270.08C-6.28 335.02 3.77 401.91 32.57 460.98C59.99 517.21 104.54 564.67 158.41 596.33C214.32 629.2 280.06 644.02 344.66 639.07C408.88 634.15 470.14 609.55 520.42 569.42C569.53 530.24 606.16 476.25 625.2 416.45C635.1 385.36 639.95 352.6 640 319.99C640.02 310.42 625.18 310.42 625.16 319.99C625.07 383.24 605.39 444.94 568.89 496.66Z" id="a4YyFcJzTi"></path><path d="M414.15 223.1C407.56 223.1 400.96 223.1 394.36 223.1C384.54 223.1 378.68 215.1 378.68 205.81C378.68 182.45 378.68 159.1 378.68 135.74C374.46 137.49 370.24 139.23 366.02 140.98C390.86 165.82 415.7 190.66 440.54 215.5C447.29 222.26 454.05 229.01 460.8 235.77C467.57 242.54 478.06 232.05 471.29 225.28C446.45 200.44 421.61 175.6 396.77 150.76C390.02 144 383.26 137.25 376.51 130.49C371.93 125.92 363.85 129.27 363.85 135.74C363.85 153.04 363.85 170.34 363.85 187.63C363.85 194.23 363.85 200.82 363.85 207.42C363.85 224.03 377.69 237.94 394.32 237.94C418.23 237.94 442.14 237.94 466.05 237.94C475.62 237.94 475.62 223.1 466.05 223.1C448.75 223.1 431.45 223.1 414.15 223.1Z" id="a1J5oBtosJ"></path><path d="M458.63 312.54C458.63 355.65 458.63 398.75 458.63 441.86C458.63 451.08 458.63 460.3 458.63 469.51C458.63 481.19 449.61 491.38 437.91 492.33C435.18 492.55 432.37 492.39 429.63 492.39C392.29 492.39 354.95 492.39 317.6 492.39C282.53 492.39 247.46 492.39 212.38 492.39C206.65 492.39 201.66 491.76 196.64 488.64C189.76 484.37 186.45 476.56 186.45 468.66C186.45 459.53 186.45 450.4 186.45 441.27C186.45 400.34 186.45 359.41 186.45 318.48C186.45 277.37 186.45 236.25 186.45 195.14C186.45 185.79 186.45 176.43 186.45 167.08C186.45 159.69 189.13 152.48 195.11 147.95C200.64 143.77 206.48 143.15 213.08 143.15C252.21 143.15 291.35 143.15 330.48 143.15C344.08 143.15 357.67 143.15 371.26 143.15C369.52 142.43 367.77 141.7 366.02 140.98C390.86 165.82 415.7 190.66 440.54 215.5C447.29 222.25 454.05 229.01 460.8 235.76C467.57 242.53 478.06 232.04 471.29 225.27C446.45 200.43 421.61 175.59 396.77 150.75C391.33 145.31 385.89 139.87 380.45 134.43C377.6 131.58 375.14 128.32 370.69 128.32C357.49 128.32 344.3 128.32 331.1 128.32C291.84 128.32 252.58 128.32 213.32 128.32C205.71 128.32 198.55 129.21 191.57 132.69C179.22 138.85 171.62 152.53 171.62 166.12C171.62 173.97 171.62 181.83 171.62 189.68C171.62 229.56 171.62 269.43 171.62 309.31C171.62 351.35 171.62 393.39 171.62 435.43C171.62 445.99 171.62 456.55 171.62 467.11C171.62 473.55 172.65 479.59 175.19 485.59C180.81 498.87 195.28 507.22 209.39 507.22C239.62 507.22 269.86 507.22 300.09 507.22C340.7 507.22 381.3 507.22 421.9 507.22C426.08 507.22 430.25 507.22 434.43 507.22C444.75 507.22 454.14 503.87 461.81 496.88C469.73 489.65 473.47 479.03 473.47 468.5C473.47 464.66 473.47 460.82 473.47 456.98C473.47 417.36 473.47 377.74 473.47 338.12C473.47 303.46 473.47 268.8 473.47 234.14C473.47 232.93 473.47 231.73 473.47 230.52C473.47 220.95 458.63 220.95 458.63 230.52C458.63 257.86 458.63 285.2 458.63 312.54Z" id="aogKwzU9A"></path><path d="M313.74 339.54C349.3 339.54 384.87 339.54 420.43 339.54C421.09 339.54 421.76 339.54 422.42 339.54C431.99 339.54 431.99 324.71 422.42 324.71C392.06 324.71 361.7 324.71 331.34 324.71C295.78 324.71 260.22 324.71 224.65 324.71C223.99 324.71 223.33 324.71 222.66 324.71C213.1 324.71 213.1 339.54 222.66 339.54C222.66 339.54 222.66 339.54 222.66 339.54C263.14 339.54 293.5 339.54 313.74 339.54Z" id="dkCmawCtE"></path><path d="M313.74 396.31C349.3 396.31 384.87 396.31 420.43 396.31C421.09 396.31 421.76 396.31 422.42 396.31C431.99 396.31 431.99 381.47 422.42 381.47C392.06 381.47 361.7 381.47 331.34 381.47C295.78 381.47 260.22 381.47 224.65 381.47C223.99 381.47 223.33 381.47 222.66 381.47C213.1 381.47 213.1 396.31 222.66 396.31C222.66 396.31 222.66 396.31 222.66 396.31C263.14 396.31 293.5 396.31 313.74 396.31Z" id="e2R0IAjQw"></path><path d="M326.31 453.07C340.7 453.07 355.09 453.07 369.48 453.07C379.05 453.07 379.05 438.24 369.48 438.24C334.93 438.24 300.39 438.24 265.84 438.24C251.45 438.24 237.05 438.24 222.66 438.24C213.1 438.24 213.1 453.07 222.66 453.07C222.66 453.07 222.66 453.07 222.66 453.07C268.73 453.07 303.28 453.07 326.31 453.07Z" id="bVefO3oIm"></path><path d="M261.03 222.43C253.41 222.6 247.5 216.1 247.33 208.73C247.16 201.11 253.66 195.2 261.03 195.03C268.66 194.86 274.57 201.37 274.73 208.73C274.95 218.28 289.78 218.3 289.57 208.73C289.21 192.95 276.81 180.55 261.03 180.2C245.25 179.84 232.84 193.49 232.49 208.73C232.14 224.51 245.79 236.93 261.03 237.27C276.81 237.62 289.22 223.98 289.57 208.73C289.78 199.16 274.95 199.18 274.73 208.73C274.56 216.36 268.66 222.26 261.03 222.43Z" id="c1fFj1MjUu"></path><path d="M291.65 266.29C291.65 267.71 291.79 268.79 291.39 269.51C291.3 269.66 290.95 269.62 290.22 269.62C287.11 269.62 284 269.62 280.9 269.62C269.83 269.62 258.77 269.62 247.71 269.62C243.4 269.62 239.09 269.62 234.78 269.62C233.75 269.62 232.72 269.62 231.69 269.62C230.7 269.62 230.81 269.74 230.24 268.72C230.51 269.22 230.42 268.14 230.42 268.01C230.42 266.65 230.42 265.3 230.42 263.94C230.42 260.65 230.42 257.35 230.42 254.06C230.42 246.81 232.35 240.26 238.69 236C242.04 233.75 243.49 229.5 241.35 225.85C239.41 222.53 234.57 220.93 231.21 223.19C223.23 228.55 217.45 236.62 216.05 246.25C215.3 251.42 215.58 256.72 215.58 261.93C215.58 268.07 215.1 274.27 219.55 279.23C223.16 283.25 228.02 284.46 233.18 284.46C251.84 284.46 270.49 284.46 289.15 284.46C294.96 284.46 300.16 282.63 303.68 277.73C307.14 272.89 306.48 266.85 306.48 261.23C306.48 255.88 306.63 250.62 305.88 245.31C304.57 236.08 298.26 228.06 290.66 223.06C282.64 217.79 275.21 230.64 283.17 235.87C283.17 235.87 283.17 235.87 283.17 235.87C288.82 248.91 291.65 259.05 291.65 266.29Z" id="f3RiJImnMu"></path></defs><g><g><g><use xlink:href="#a4YyFcJzTi" opacity="1" fill="#0079aa" fill-opacity="1"></use><g><use xlink:href="#a4YyFcJzTi" opacity="1" fill-opacity="0" stroke="#000000" stroke-width="1" stroke-opacity="0"></use></g></g><g><use xlink:href="#a1J5oBtosJ" opacity="1" fill="#0079aa" fill-opacity="1"></use><g><use xlink:href="#a1J5oBtosJ" opacity="1" fill-opacity="0" stroke="#000000" stroke-width="1" stroke-opacity="0"></use></g></g><g><use xlink:href="#aogKwzU9A" opacity="1" fill="#0079aa" fill-opacity="1"></use><g><use xlink:href="#aogKwzU9A" opacity="1" fill-opacity="0" stroke="#000000" stroke-width="1" stroke-opacity="0"></use></g></g><g><use xlink:href="#dkCmawCtE" opacity="1" fill="#0079aa" fill-opacity="1"></use><g><use xlink:href="#dkCmawCtE" opacity="1" fill-opacity="0" stroke="#000000" stroke-width="1" stroke-opacity="0"></use></g></g><g><use xlink:href="#e2R0IAjQw" opacity="1" fill="#0079aa" fill-opacity="1"></use><g><use xlink:href="#e2R0IAjQw" opacity="1" fill-opacity="0" stroke="#000000" stroke-width="1" stroke-opacity="0"></use></g></g><g><use xlink:href="#bVefO3oIm" opacity="1" fill="#0079aa" fill-opacity="1"></use><g><use xlink:href="#bVefO3oIm" opacity="1" fill-opacity="0" stroke="#000000" stroke-width="1" stroke-opacity="0"></use></g></g><g><use xlink:href="#c1fFj1MjUu" opacity="1" fill="#0079aa" fill-opacity="1"></use><g><use xlink:href="#c1fFj1MjUu" opacity="1" fill-opacity="0" stroke="#000000" stroke-width="1" stroke-opacity="0"></use></g></g><g><use xlink:href="#f3RiJImnMu" opacity="1" fill="#0079aa" fill-opacity="1"></use><g><use xlink:href="#f3RiJImnMu" opacity="1" fill-opacity="0" stroke="#000000" stroke-width="1" stroke-opacity="0"></use></g></g></g></g></svg>