<?xml version="1.0" encoding="UTF-8" standalone="no"?>
<!DOCTYPE svg PUBLIC "-//W3C//DTD SVG 1.1//EN" "http://www.w3.org/Graphics/SVG/1.1/DTD/svg11.dtd">
<svg version="1.1" xmlns="http://www.w3.org/2000/svg" xmlns:xlink="http://www.w3.org/1999/xlink" preserveAspectRatio="xMidYMid meet" viewBox="0 0 640 640" width="24" height="24"><defs><path d="M337.59 222.66C333.65 222.66 330.47 225.84 330.47 229.77C330.47 233.69 333.65 236.88 337.59 236.88C345.76 236.88 411.14 236.88 419.31 236.88C423.25 236.88 426.42 233.69 426.42 229.77C426.42 225.84 423.25 222.66 419.31 222.66C402.97 222.66 345.76 222.66 337.59 222.66Z" id="c6V2QZXz32"></path><path d="M220.69 279.54C216.75 279.54 213.58 282.73 213.58 286.66C213.58 290.58 216.75 293.77 220.69 293.77C240.55 293.77 399.45 293.77 419.31 293.77C423.25 293.77 426.42 290.58 426.42 286.66C426.42 282.73 423.25 279.54 419.31 279.54C379.59 279.54 240.55 279.54 220.69 279.54Z" id="cQQsFgyI4"></path><path d="M220.69 336.43C216.75 336.43 213.58 339.62 213.58 343.54C213.58 347.47 216.75 350.66 220.69 350.66C240.55 350.66 399.45 350.66 419.31 350.66C423.25 350.66 426.42 347.47 426.42 343.54C426.42 339.62 423.25 336.43 419.31 336.43C379.59 336.43 240.55 336.43 220.69 336.43Z" id="ci1rXy8HU"></path><path d="M220.69 393.32C216.75 393.32 213.58 396.51 213.58 400.43C213.58 404.36 216.75 407.54 220.69 407.54C240.55 407.54 399.45 407.54 419.31 407.54C423.25 407.54 426.42 404.36 426.42 400.43C426.42 396.51 423.25 393.32 419.31 393.32C379.59 393.32 240.55 393.32 220.69 393.32Z" id="b1c9YSrHWm"></path><path d="M393.61 99.56L393.64 99.56L393.66 99.56L393.68 99.56L393.71 99.56L393.73 99.57L393.75 99.57L393.77 99.57L393.8 99.58L393.82 99.58L393.84 99.59L393.86 99.59L393.89 99.6L393.91 99.6L393.93 99.61L393.95 99.61L393.97 99.62L394 99.63L394.02 99.63L394.04 99.64L394.06 99.64L394.13 99.66L394.15 99.67L394.17 99.68L394.19 99.68L394.21 99.69L394.24 99.69L394.26 99.7L394.28 99.7L394.3 99.71L394.32 99.72L394.35 99.72L394.37 99.72L394.39 99.73L394.41 99.73L394.44 99.74L394.46 99.74L394.58 99.75L394.62 99.76L394.65 99.76L394.69 99.77L394.73 99.77L394.77 99.78L394.81 99.78L394.85 99.79L394.89 99.79L394.92 99.8L394.96 99.81L395 99.81L395.04 99.82L395.08 99.82L395.12 99.83L395.15 99.83L395.19 99.84L395.23 99.85L395.27 99.85L395.31 99.86L395.34 99.87L395.38 99.88L395.42 99.89L395.46 99.89L395.49 99.9L395.53 99.91L395.57 99.92L395.61 99.93L395.65 99.94L395.68 99.95L395.72 99.96L395.76 99.97L395.8 99.98L395.83 99.99L395.87 100.01L395.91 100.02L395.94 100.03L396.02 100.06L396.05 100.07L396.09 100.09L396.12 100.1L396.16 100.11L396.19 100.13L396.23 100.14L396.26 100.16L396.29 100.18L396.33 100.19L396.36 100.21L396.39 100.22L396.42 100.24L396.46 100.26L396.49 100.27L396.52 100.29L396.55 100.31L396.58 100.33L396.62 100.35L396.65 100.36L396.68 100.38L396.71 100.4L396.74 100.42L396.77 100.44L396.8 100.46L396.83 100.48L396.87 100.5L396.9 100.51L396.93 100.53L396.96 100.55L396.99 100.57L397.02 100.59L397.05 100.61L397.14 100.67L397.18 100.69L397.21 100.71L397.24 100.73L397.27 100.75L397.29 100.76L397.31 100.78L397.33 100.79L397.36 100.8L397.38 100.81L397.4 100.82L397.42 100.84L397.44 100.85L397.47 100.86L397.49 100.87L397.51 100.88L397.53 100.89L397.55 100.9L397.58 100.91L397.6 100.92L397.67 100.95L397.69 100.96L397.71 100.97L397.73 100.98L397.76 100.99L397.78 101L397.8 101.01L397.82 101.03L397.84 101.04L397.87 101.05L397.89 101.06L397.91 101.07L397.93 101.08L397.95 101.1L397.97 101.11L397.99 101.12L398.01 101.14L398.04 101.15L398.06 101.16L398.08 101.18L398.1 101.19L398.12 101.21L398.14 101.23L477.01 167.74L477.02 167.75L477.02 167.75L477.03 167.76L477.04 167.77L477.04 167.77L477.05 167.78L477.05 167.78L477.06 167.79L477.06 167.79L477.07 167.81L477.07 167.81L477.08 167.82L477.09 167.83L477.09 167.84L477.1 167.85L477.11 167.87L477.12 167.89L477.13 167.89L477.13 167.9L477.14 167.91L477.14 167.92L477.15 167.93L477.16 167.93L477.16 167.94L477.17 167.95L477.17 167.95L477.18 167.96L477.18 167.96L477.19 167.97L477.19 167.97L477.2 167.98L477.23 168L477.25 168.03L477.28 168.06L477.31 168.09L477.34 168.11L477.36 168.14L477.39 168.17L477.42 168.2L477.44 168.22L477.47 168.25L477.49 168.28L477.52 168.31L477.54 168.34L477.57 168.37L477.59 168.4L477.61 168.43L477.64 168.46L477.66 168.49L477.68 168.52L477.71 168.55L477.73 168.58L477.75 168.61L477.77 168.64L477.8 168.67L477.82 168.7L477.84 168.74L477.86 168.77L477.89 168.8L477.91 168.83L477.93 168.86L477.95 168.89L477.97 168.93L478 168.96L478.04 169.02L478.06 169.05L478.08 169.08L478.11 169.12L478.13 169.15L478.15 169.18L478.17 169.21L478.19 169.23L478.21 169.26L478.22 169.28L478.24 169.31L478.26 169.33L478.28 169.36L478.3 169.38L478.32 169.41L478.34 169.43L478.39 169.51L478.41 169.53L478.43 169.55L478.45 169.58L478.47 169.6L478.49 169.63L478.5 169.65L478.52 169.68L478.54 169.7L478.56 169.73L478.58 169.75L478.59 169.78L478.61 169.8L478.63 169.83L478.65 169.85L478.66 169.88L478.68 169.9L478.7 169.93L478.71 169.96L478.73 169.98L478.74 170.01L478.76 170.03L478.77 170.06L478.79 170.09L478.8 170.12L478.81 170.14L478.83 170.17L478.84 170.2L478.85 170.23L478.87 170.26L478.88 170.29L478.89 170.32L478.9 170.35L478.92 170.38L478.93 170.41L478.94 170.44L478.95 170.47L478.96 170.5L478.97 170.53L478.98 170.56L478.99 170.59L479 170.62L479.01 170.65L479.02 170.68L479.02 170.72L479.03 170.75L479.04 170.78L479.05 170.81L479.06 170.84L479.06 170.87L479.07 170.9L479.08 170.94L479.09 170.97L479.09 171L479.1 171.03L479.11 171.06L479.11 171.1L479.13 171.16L479.14 171.19L479.14 171.22L479.15 171.26L479.16 171.29L479.17 171.32L479.17 171.35L479.18 171.38L479.19 171.42L479.2 171.45L479.21 171.49L479.22 171.52L479.23 171.56L479.24 171.59L479.24 171.63L479.25 171.66L479.27 171.74L479.28 171.77L479.29 171.81L479.3 171.84L479.31 171.88L479.32 171.91L479.33 171.95L479.34 171.98L479.35 172.02L479.36 172.06L479.37 172.09L479.37 172.13L479.38 172.16L479.39 172.2L479.4 172.23L479.41 172.27L479.41 172.3L479.42 172.34L479.43 172.38L479.44 172.41L479.44 172.45L479.45 172.48L479.45 172.52L479.46 172.56L479.47 172.59L479.47 172.63L479.48 172.66L479.48 172.7L479.48 172.74L479.49 172.77L479.49 172.81L479.49 172.85L479.5 172.89L479.5 172.89L479.5 172.9L479.5 172.91L479.5 172.92L479.5 172.92L479.5 172.93L479.5 172.94L479.5 172.95L479.5 172.95L479.5 172.96L479.51 172.98L479.51 172.99L479.51 173L479.52 173.01L479.52 173.02L479.53 173.06L479.53 173.06L479.54 173.08L479.54 173.09L479.54 173.11L479.54 173.11L479.55 173.12L479.55 173.13L479.55 173.14L479.55 173.14L479.55 173.15L479.55 173.16L479.55 173.17L479.55 173.18L479.55 173.18L479.55 520.77L479.54 521.58L479.49 522.38L479.41 523.17L479.29 523.96L479.15 524.73L478.98 525.49L478.78 526.24L478.55 526.98L478.29 527.71L478 528.42L477.69 529.12L477.35 529.8L476.99 530.47L476.6 531.13L476.19 531.76L475.75 532.38L475.29 532.98L474.81 533.57L474.3 534.13L473.78 534.68L473.24 535.2L472.67 535.7L472.09 536.18L471.49 536.64L470.87 537.08L470.23 537.49L469.58 537.88L468.91 538.25L468.22 538.58L467.52 538.9L466.81 539.18L466.09 539.44L465.35 539.67L464.6 539.87L463.83 540.04L463.06 540.19L462.28 540.3L461.49 540.38L460.69 540.43L459.88 540.44L180.12 540.44L179.31 540.43L178.51 540.38L177.72 540.3L176.94 540.19L176.16 540.04L175.4 539.87L174.65 539.67L173.91 539.44L173.18 539.18L172.47 538.9L171.77 538.58L171.09 538.25L170.42 537.88L169.77 537.49L169.13 537.08L168.51 536.64L167.91 536.18L167.33 535.7L166.76 535.2L166.22 534.68L165.69 534.13L165.19 533.57L164.71 532.98L164.25 532.38L163.81 531.76L163.4 531.13L163.01 530.47L162.65 529.8L162.31 529.12L162 528.42L161.71 527.71L161.45 526.98L161.22 526.24L161.02 525.49L160.85 524.73L160.71 523.96L160.59 523.17L160.51 522.38L160.46 521.58L160.45 520.77L160.45 119.23L160.46 118.42L160.51 117.62L160.59 116.83L160.71 116.04L160.85 115.27L161.02 114.51L161.22 113.76L161.45 113.02L161.71 112.29L162 111.58L162.31 110.88L162.65 110.2L163.01 109.53L163.4 108.87L163.81 108.24L164.25 107.62L164.71 107.02L165.19 106.43L165.7 105.87L166.22 105.32L166.76 104.8L167.33 104.3L167.91 103.82L168.51 103.36L169.13 102.92L169.77 102.51L170.42 102.12L171.09 101.75L171.78 101.42L172.47 101.1L173.19 100.82L173.91 100.56L174.65 100.33L175.4 100.13L176.17 99.96L176.94 99.81L177.72 99.7L178.51 99.62L179.31 99.57L180.12 99.56L393.56 99.56L393.59 99.56L393.61 99.56ZM179.9 113.78L179.68 113.8L179.46 113.82L179.24 113.85L179.03 113.89L178.82 113.94L178.61 113.99L178.4 114.06L178.2 114.13L178 114.21L177.81 114.29L177.62 114.39L177.43 114.49L177.25 114.6L177.08 114.71L176.91 114.83L176.74 114.96L176.58 115.09L176.42 115.23L176.27 115.38L176.12 115.53L175.98 115.68L175.85 115.85L175.72 116.01L175.6 116.18L175.49 116.36L175.38 116.54L175.28 116.73L175.19 116.92L175.1 117.11L175.02 117.31L174.95 117.51L174.88 117.71L174.83 117.92L174.78 118.13L174.74 118.35L174.71 118.57L174.69 118.79L174.67 119.01L174.67 119.23L174.67 520.77L174.67 520.99L174.69 521.21L174.71 521.43L174.74 521.65L174.78 521.87L174.83 522.08L174.88 522.29L174.95 522.49L175.02 522.69L175.1 522.89L175.19 523.08L175.28 523.27L175.38 523.46L175.49 523.64L175.6 523.82L175.72 523.99L175.85 524.15L175.98 524.32L176.12 524.47L176.27 524.62L176.42 524.77L176.58 524.91L176.74 525.04L176.91 525.17L177.08 525.29L177.25 525.4L177.43 525.51L177.62 525.61L177.81 525.71L178 525.79L178.2 525.87L178.4 525.94L178.61 526.01L178.82 526.06L179.03 526.11L179.24 526.15L179.46 526.18L179.68 526.2L179.9 526.22L180.12 526.22L459.88 526.22L460.1 526.22L460.32 526.2L460.54 526.18L460.76 526.15L460.97 526.11L461.18 526.06L461.39 526.01L461.6 525.94L461.8 525.87L462 525.79L462.19 525.71L462.38 525.61L462.57 525.51L462.75 525.4L462.92 525.29L463.09 525.17L463.26 525.04L463.42 524.91L463.58 524.77L463.73 524.62L463.88 524.47L464.02 524.32L464.15 524.15L464.28 523.99L464.4 523.82L464.51 523.64L464.62 523.46L464.72 523.27L464.81 523.08L464.9 522.89L464.98 522.69L465.05 522.49L465.12 522.29L465.17 522.08L465.22 521.87L465.26 521.65L465.29 521.43L465.31 521.21L465.33 520.99L465.33 520.77L465.33 180.3L393.56 180.3L393.27 180.29L392.98 180.27L392.69 180.24L392.41 180.2L392.13 180.15L391.85 180.09L391.58 180.02L391.31 179.93L391.05 179.84L390.79 179.74L390.54 179.62L390.29 179.5L390.05 179.37L389.82 179.23L389.59 179.08L389.36 178.92L389.15 178.76L388.93 178.58L388.73 178.4L388.53 178.21L388.35 178.01L388.16 177.81L387.99 177.6L387.82 177.38L387.67 177.16L387.52 176.93L387.38 176.69L387.25 176.45L387.12 176.2L387.01 175.95L386.91 175.69L386.82 175.43L386.73 175.16L386.66 174.89L386.6 174.62L386.55 174.34L386.51 174.05L386.48 173.77L386.46 173.48L386.45 173.18L386.45 113.78L180.12 113.78L179.9 113.78ZM452.98 166.07L400.68 121.97L400.68 166.07L452.98 166.07Z" id="a2Ua4BmK6"></path><path d="M303.19 132.84L303.48 132.87L303.76 132.91L304.04 132.96L304.32 133.02L304.59 133.09L304.86 133.18L305.12 133.27L305.38 133.37L305.63 133.49L305.88 133.61L306.12 133.74L306.35 133.88L306.58 134.03L306.81 134.19L307.03 134.35L307.24 134.53L307.44 134.71L307.64 134.9L307.83 135.09L308.01 135.3L308.18 135.51L308.35 135.73L308.5 135.95L308.65 136.18L308.79 136.42L308.92 136.66L309.05 136.91L309.16 137.16L309.26 137.42L309.36 137.68L309.44 137.95L309.51 138.22L309.57 138.49L309.62 138.77L309.66 139.06L309.69 139.34L309.71 139.63L309.72 139.93L309.72 256.26L309.71 256.56L309.69 256.85L309.66 257.13L309.62 257.42L309.57 257.7L309.51 257.97L309.44 258.24L309.35 258.51L309.26 258.77L309.16 259.03L309.05 259.28L308.92 259.53L308.79 259.77L308.65 260.01L308.5 260.24L308.34 260.46L308.18 260.68L308 260.89L307.82 261.09L307.63 261.29L307.44 261.48L307.23 261.66L307.02 261.83L306.81 262L306.58 262.16L306.35 262.31L306.12 262.45L305.87 262.58L305.63 262.7L305.37 262.81L305.12 262.91L304.85 263.01L304.59 263.09L304.31 263.16L304.04 263.22L303.76 263.28L303.48 263.32L303.19 263.34L302.9 263.36L302.61 263.37L205.36 263.37L205.07 263.36L204.78 263.34L204.49 263.31L204.21 263.27L203.93 263.22L203.65 263.16L203.38 263.09L203.11 263L202.85 262.91L202.59 262.81L202.34 262.7L202.09 262.57L201.85 262.44L201.61 262.3L201.38 262.15L201.16 261.99L200.94 261.83L200.73 261.65L200.53 261.47L200.33 261.28L200.14 261.09L199.96 260.88L199.79 260.67L199.62 260.45L199.46 260.23L199.31 260L199.17 259.76L199.04 259.52L198.92 259.28L198.81 259.02L198.71 258.77L198.61 258.5L198.53 258.24L198.46 257.96L198.39 257.69L198.34 257.41L198.3 257.13L198.27 256.84L198.26 256.55L198.25 256.26L198.25 139.93L198.26 139.63L198.27 139.34L198.3 139.06L198.34 138.77L198.39 138.49L198.46 138.22L198.53 137.95L198.61 137.68L198.71 137.42L198.81 137.16L198.92 136.91L199.04 136.66L199.17 136.42L199.31 136.18L199.46 135.95L199.62 135.73L199.79 135.51L199.96 135.3L200.14 135.09L200.33 134.9L200.53 134.71L200.73 134.53L200.94 134.35L201.16 134.19L201.38 134.03L201.61 133.88L201.85 133.74L202.09 133.61L202.34 133.49L202.59 133.37L202.85 133.27L203.11 133.18L203.38 133.09L203.65 133.02L203.93 132.96L204.21 132.91L204.49 132.87L204.78 132.84L205.07 132.82L205.36 132.81L302.61 132.81L302.9 132.82L303.19 132.84ZM212.47 249.15L218 249.15L218 235.13L218.01 234.27L218.05 233.42L218.11 232.58L218.2 231.74L218.31 230.91L218.45 230.09L218.6 229.28L218.79 228.47L218.99 227.68L219.22 226.89L219.47 226.12L219.74 225.35L220.03 224.59L220.34 223.85L220.67 223.11L221.03 222.39L221.4 221.67L221.79 220.97L222.2 220.28L222.63 219.61L223.08 218.95L223.55 218.3L224.03 217.66L224.53 217.04L225.05 216.43L225.58 215.84L226.13 215.26L226.7 214.7L227.28 214.15L227.88 213.62L228.49 213.11L229.11 212.61L229.75 212.13L230.41 211.67L231.07 211.22L231.75 210.79L232.44 210.38L233.15 209.99L233.86 209.62L234.59 209.27L234.22 208.91L233.86 208.53L233.51 208.15L233.17 207.76L232.83 207.37L232.5 206.96L232.18 206.56L231.86 206.14L231.56 205.72L231.26 205.3L230.97 204.86L230.69 204.42L230.42 203.98L230.15 203.53L229.89 203.08L229.65 202.62L229.41 202.15L229.18 201.68L228.96 201.2L228.74 200.72L228.54 200.23L228.35 199.74L228.16 199.25L227.99 198.75L227.83 198.24L227.67 197.74L227.53 197.22L227.39 196.71L227.27 196.18L227.15 195.66L227.05 195.13L226.95 194.6L226.87 194.06L226.8 193.52L226.74 192.98L226.69 192.44L226.65 191.89L226.62 191.33L226.6 190.78L226.6 190.22L226.62 189.12L226.68 188.03L226.79 186.95L226.95 185.88L227.14 184.83L227.38 183.79L227.65 182.77L227.96 181.76L228.31 180.78L228.7 179.81L229.13 178.85L229.59 177.92L230.08 177.01L230.61 176.12L231.18 175.26L231.77 174.41L232.39 173.59L233.05 172.8L233.73 172.03L234.45 171.29L235.19 170.58L235.96 169.89L236.75 169.24L237.57 168.61L238.41 168.02L239.28 167.45L240.17 166.92L241.08 166.43L242.01 165.97L242.96 165.54L243.93 165.15L244.92 164.8L245.93 164.49L246.95 164.21L247.99 163.98L249.04 163.79L250.11 163.63L251.19 163.52L252.28 163.46L253.38 163.43L254.49 163.46L255.58 163.52L256.66 163.63L257.72 163.79L258.78 163.98L259.82 164.21L260.84 164.49L261.84 164.8L262.83 165.15L263.8 165.54L264.76 165.97L265.69 166.43L266.6 166.92L267.49 167.45L268.35 168.02L269.2 168.61L270.02 169.24L270.81 169.89L271.58 170.58L272.32 171.29L273.04 172.03L273.72 172.8L274.38 173.59L275 174.41L275.6 175.26L276.16 176.12L276.69 177.01L277.18 177.92L277.64 178.85L278.07 179.81L278.46 180.78L278.81 181.76L279.12 182.77L279.4 183.79L279.63 184.83L279.83 185.88L279.98 186.95L280.09 188.03L280.16 189.12L280.18 190.22L280.17 190.78L280.15 191.33L280.13 191.89L280.09 192.44L280.04 192.98L279.97 193.52L279.9 194.06L279.82 194.6L279.73 195.13L279.62 195.66L279.51 196.18L279.38 196.7L279.25 197.22L279.1 197.73L278.95 198.24L278.78 198.75L278.61 199.25L278.42 199.74L278.23 200.23L278.03 200.72L277.81 201.2L277.59 201.68L277.36 202.15L277.12 202.61L276.87 203.07L276.62 203.53L276.35 203.98L276.08 204.42L275.8 204.86L275.51 205.29L275.21 205.72L274.9 206.14L274.59 206.55L274.27 206.96L273.94 207.36L273.6 207.76L273.25 208.15L272.9 208.53L272.54 208.9L272.18 209.27L272.9 209.62L273.62 209.99L274.32 210.38L275.01 210.79L275.69 211.22L276.36 211.67L277.01 212.13L277.65 212.61L278.28 213.11L278.89 213.62L279.49 214.15L280.07 214.7L280.63 215.26L281.18 215.84L281.72 216.43L282.24 217.04L282.74 217.66L283.22 218.3L283.69 218.95L284.13 219.61L284.56 220.28L284.98 220.97L285.37 221.67L285.74 222.39L286.09 223.11L286.43 223.85L286.74 224.59L287.03 225.35L287.3 226.12L287.55 226.89L287.78 227.68L287.98 228.47L288.16 229.28L288.32 230.09L288.46 230.91L288.57 231.74L288.65 232.58L288.72 233.42L288.76 234.27L288.77 235.13L288.77 249.15L295.5 249.15L295.5 147.04L212.47 147.04L212.47 249.15ZM245.6 220.8L244.64 220.9L243.7 221.06L242.77 221.28L241.87 221.56L241 221.89L240.16 222.29L239.34 222.73L238.56 223.22L237.82 223.76L237.11 224.35L236.44 224.98L235.81 225.65L235.22 226.36L234.68 227.1L234.19 227.88L233.75 228.7L233.35 229.54L233.02 230.42L232.74 231.31L232.52 232.24L232.36 233.18L232.26 234.15L232.23 235.13L232.23 244.74L274.55 244.74L274.55 235.13L274.51 234.15L274.41 233.18L274.25 232.24L274.03 231.31L273.75 230.42L273.41 229.54L273.02 228.7L272.58 227.88L272.09 227.1L271.55 226.36L270.96 225.65L270.33 224.98L269.66 224.35L268.95 223.76L268.2 223.22L267.42 222.73L266.61 222.29L265.76 221.89L264.89 221.56L263.99 221.28L263.07 221.06L262.13 220.9L261.16 220.8L260.18 220.76L246.58 220.76L245.6 220.8ZM250.69 177.94L249.42 178.29L248.2 178.77L247.05 179.37L245.97 180.08L244.97 180.89L244.06 181.8L243.25 182.8L242.54 183.88L241.94 185.03L241.46 186.25L241.11 187.52L240.89 188.85L240.82 190.22L240.89 191.58L241.11 192.91L241.46 194.19L241.94 195.4L242.54 196.56L243.25 197.64L244.06 198.63L244.97 199.54L245.97 200.36L247.05 201.07L248.2 201.67L249.42 202.15L250.69 202.5L252.02 202.71L253.38 202.79L254.75 202.71L256.07 202.5L257.35 202.15L258.57 201.67L259.72 201.07L260.8 200.36L261.8 199.54L262.71 198.63L263.52 197.64L264.24 196.56L264.83 195.4L265.31 194.19L265.66 192.91L265.88 191.58L265.96 190.22L265.88 188.85L265.67 187.52L265.31 186.25L264.83 185.03L264.24 183.88L263.53 182.8L262.71 181.8L261.8 180.89L260.8 180.08L259.72 179.37L258.57 178.77L257.35 178.29L256.08 177.94L254.75 177.72L253.38 177.65L252.02 177.72L250.69 177.94Z" id="b2yotNSSxd"></path><path d="M220.69 445.3C216.75 445.3 213.58 448.49 213.58 452.42C213.58 456.34 216.75 459.53 220.69 459.53C226.04 459.53 268.87 459.53 274.23 459.53C278.16 459.53 281.34 456.34 281.34 452.42C281.34 448.49 278.16 445.3 274.23 445.3C263.52 445.3 226.04 445.3 220.69 445.3Z" id="b3n30BuYBL"></path><path d="M355.97 445.3C352.04 445.3 348.86 448.49 348.86 452.42C348.86 456.34 352.04 459.53 355.97 459.53C360.3 459.53 394.95 459.53 399.28 459.53C403.21 459.53 406.39 456.34 406.39 452.42C406.39 448.49 403.21 445.3 399.28 445.3C390.62 445.3 360.3 445.3 355.97 445.3Z" id="bbcJ6ssKr"></path><path d="M346.21 1.06L359.1 2.38L371.84 4.2L384.41 6.51L396.81 9.32L409.02 12.6L421.04 16.34L432.85 20.54L444.44 25.19L455.81 30.27L466.93 35.77L477.81 41.69L488.44 48.01L498.79 54.73L508.87 61.82L518.65 69.29L528.14 77.12L537.31 85.31L546.17 93.83L554.69 102.69L562.88 111.86L570.71 121.35L578.18 131.13L585.27 141.21L591.99 151.56L598.31 162.19L604.23 173.07L609.73 184.19L614.81 195.56L619.46 207.15L623.66 218.96L627.4 230.98L630.68 243.19L633.49 255.59L635.8 268.16L637.62 280.9L638.94 293.79L639.73 306.83L640 320L639.73 333.17L638.94 346.21L637.62 359.1L635.8 371.84L633.49 384.41L630.68 396.81L627.4 409.02L623.66 421.04L619.46 432.85L614.81 444.44L609.73 455.81L604.23 466.93L598.31 477.81L591.99 488.44L585.27 498.79L578.18 508.87L570.71 518.65L562.88 528.14L554.69 537.31L546.17 546.17L537.31 554.69L528.14 562.88L518.65 570.71L508.87 578.18L498.79 585.27L488.44 591.99L477.81 598.31L466.93 604.23L455.81 609.73L444.44 614.81L432.85 619.46L421.04 623.66L409.02 627.4L396.81 630.68L384.41 633.49L371.84 635.8L359.1 637.62L346.21 638.94L333.17 639.73L320 640L306.83 639.73L293.79 638.94L280.9 637.62L268.16 635.8L255.59 633.49L243.19 630.68L230.98 627.4L218.96 623.66L207.15 619.46L195.56 614.81L184.19 609.73L173.07 604.23L162.19 598.31L151.56 591.99L141.21 585.27L131.13 578.18L121.35 570.71L111.86 562.88L102.69 554.69L93.83 546.17L85.31 537.31L77.12 528.14L69.29 518.65L61.82 508.87L54.73 498.79L48.01 488.44L41.69 477.81L35.77 466.93L30.27 455.81L25.19 444.44L20.54 432.85L16.34 421.04L12.6 409.02L9.32 396.81L6.51 384.41L4.2 371.84L2.38 359.1L1.06 346.21L0.27 333.17L0 320L0.27 306.83L1.06 293.79L2.38 280.9L4.2 268.16L6.51 255.59L9.32 243.19L12.6 230.98L16.34 218.96L20.54 207.15L25.19 195.56L30.27 184.19L35.77 173.07L41.69 162.19L48.01 151.56L54.73 141.21L61.82 131.13L69.29 121.35L77.12 111.86L85.31 102.69L93.83 93.83L102.69 85.31L111.86 77.12L121.35 69.29L131.13 61.82L141.21 54.73L151.56 48.01L162.19 41.69L173.07 35.77L184.19 30.27L195.56 25.19L207.15 20.54L218.96 16.34L230.98 12.6L243.19 9.32L255.59 6.51L268.16 4.2L280.9 2.38L293.79 1.06L306.83 0.27L320 0L333.17 0.27L346.21 1.06ZM295.54 22.33L283.51 23.55L271.62 25.25L259.88 27.41L248.31 30.03L236.91 33.09L225.7 36.58L214.68 40.51L203.86 44.84L193.25 49.58L182.86 54.72L172.71 60.24L162.79 66.14L153.13 72.41L143.72 79.03L134.59 86.01L125.74 93.32L117.17 100.95L108.91 108.91L100.95 117.17L93.32 125.74L86.01 134.59L79.03 143.72L72.41 153.13L66.14 162.79L60.24 172.71L54.72 182.86L49.58 193.25L44.84 203.86L40.51 214.68L36.58 225.7L33.09 236.91L30.03 248.31L27.41 259.88L25.25 271.62L23.55 283.51L22.33 295.54L21.58 307.71L21.33 320L21.58 332.29L22.33 344.46L23.55 356.49L25.25 368.38L27.41 380.12L30.03 391.69L33.09 403.09L36.58 414.3L40.51 425.32L44.84 436.14L49.58 446.75L54.72 457.14L60.24 467.29L66.14 477.21L72.41 486.87L79.03 496.28L86.01 505.41L93.32 514.26L100.95 522.83L108.91 531.09L117.17 539.05L125.74 546.68L134.59 553.99L143.72 560.97L153.13 567.59L162.79 573.86L172.71 579.76L182.86 585.28L193.25 590.42L203.86 595.16L214.68 599.49L225.7 603.42L236.91 606.91L248.31 609.97L259.88 612.59L271.62 614.75L283.51 616.45L295.54 617.67L307.71 618.42L320 618.67L332.29 618.42L344.46 617.67L356.49 616.45L368.38 614.75L380.12 612.59L391.69 609.97L403.09 606.91L414.3 603.42L425.32 599.49L436.14 595.16L446.75 590.42L457.14 585.28L467.29 579.76L477.21 573.86L486.87 567.59L496.28 560.97L505.41 553.99L514.26 546.68L522.83 539.05L531.09 531.09L539.05 522.83L546.68 514.26L553.99 505.41L560.97 496.28L567.59 486.87L573.86 477.21L579.76 467.29L585.28 457.14L590.42 446.75L595.16 436.14L599.49 425.32L603.42 414.3L606.91 403.09L609.97 391.69L612.59 380.12L614.75 368.38L616.45 356.49L617.67 344.46L618.42 332.29L618.67 320L618.42 307.71L617.67 295.54L616.45 283.51L614.75 271.62L612.59 259.88L609.97 248.31L606.91 236.91L603.42 225.7L599.49 214.68L595.16 203.86L590.42 193.25L585.28 182.86L579.76 172.71L573.86 162.79L567.59 153.13L560.97 143.72L553.99 134.59L546.68 125.74L539.05 117.17L531.09 108.91L522.83 100.95L514.26 93.32L505.41 86.01L496.28 79.03L486.87 72.41L477.21 66.14L467.29 60.24L457.14 54.72L446.75 49.58L436.14 44.84L425.32 40.51L414.3 36.58L403.09 33.09L391.69 30.03L380.12 27.41L368.38 25.25L356.49 23.55L344.46 22.33L332.29 21.58L320 21.33L307.71 21.58L295.54 22.33Z" id="e4PD0THFcs"></path></defs><g><g><g><use xlink:href="#c6V2QZXz32" opacity="1" fill="#0079aa" fill-opacity="1"></use><g><use xlink:href="#c6V2QZXz32" opacity="1" fill-opacity="0" stroke="#000000" stroke-width="1" stroke-opacity="0"></use></g></g><g><use xlink:href="#cQQsFgyI4" opacity="1" fill="#0079aa" fill-opacity="1"></use><g><use xlink:href="#cQQsFgyI4" opacity="1" fill-opacity="0" stroke="#000000" stroke-width="1" stroke-opacity="0"></use></g></g><g><use xlink:href="#ci1rXy8HU" opacity="1" fill="#0079aa" fill-opacity="1"></use><g><use xlink:href="#ci1rXy8HU" opacity="1" fill-opacity="0" stroke="#000000" stroke-width="1" stroke-opacity="0"></use></g></g><g><use xlink:href="#b1c9YSrHWm" opacity="1" fill="#0079aa" fill-opacity="1"></use><g><use xlink:href="#b1c9YSrHWm" opacity="1" fill-opacity="0" stroke="#000000" stroke-width="1" stroke-opacity="0"></use></g></g><g><use xlink:href="#a2Ua4BmK6" opacity="1" fill="#0079aa" fill-opacity="1"></use><g><use xlink:href="#a2Ua4BmK6" opacity="1" fill-opacity="0" stroke="#000000" stroke-width="1" stroke-opacity="0"></use></g></g><g><use xlink:href="#b2yotNSSxd" opacity="1" fill="#0079aa" fill-opacity="1"></use><g><use xlink:href="#b2yotNSSxd" opacity="1" fill-opacity="0" stroke="#000000" stroke-width="1" stroke-opacity="0"></use></g></g><g><use xlink:href="#b3n30BuYBL" opacity="1" fill="#0079aa" fill-opacity="1"></use><g><use xlink:href="#b3n30BuYBL" opacity="1" fill-opacity="0" stroke="#000000" stroke-width="1" stroke-opacity="0"></use></g></g><g><use xlink:href="#bbcJ6ssKr" opacity="1" fill="#0079aa" fill-opacity="1"></use><g><use xlink:href="#bbcJ6ssKr" opacity="1" fill-opacity="0" stroke="#000000" stroke-width="1" stroke-opacity="0"></use></g></g><g><use xlink:href="#e4PD0THFcs" opacity="1" fill="#0079aa" fill-opacity="1"></use><g><use xlink:href="#e4PD0THFcs" opacity="1" fill-opacity="0" stroke="#000000" stroke-width="1" stroke-opacity="0"></use></g></g></g></g></svg>