<svg xmlns="http://www.w3.org/2000/svg" xmlns:xlink="http://www.w3.org/1999/xlink" version="1.1" x="0px" y="0px" viewBox="0 -15 100 125" style="enable-background:new 0 0 100 100;" xml:space="preserve"><path d="M63.966,36.311H52.473c-0.553,0-1,0.448-1,1s0.447,1,1,1h11.493c0.553,0,1-0.448,1-1S64.519,36.311,63.966,36.311z"/><path d="M63.966,44.311H36.034c-0.553,0-1,0.448-1,1s0.447,1,1,1h27.932c0.553,0,1-0.448,1-1S64.519,44.311,63.966,44.311z"/><path d="M63.966,52.311H36.034c-0.553,0-1,0.448-1,1s0.447,1,1,1h27.932c0.553,0,1-0.448,1-1S64.519,52.311,63.966,52.311z"/><path d="M63.966,60.311H36.034c-0.553,0-1,0.448-1,1s0.447,1,1,1h27.932c0.553,0,1-0.448,1-1S64.519,60.311,63.966,60.311z"/><path d="M72.387,29.11c-0.015-0.06-0.024-0.121-0.05-0.176c-0.024-0.052-0.063-0.095-0.097-0.143c-0.042-0.06-0.08-0.12-0.134-0.169  c-0.011-0.01-0.015-0.023-0.026-0.033l-11.092-9.354c-0.037-0.031-0.082-0.042-0.122-0.067c-0.059-0.037-0.114-0.075-0.181-0.099  c-0.07-0.026-0.141-0.034-0.214-0.043C60.428,19.02,60.39,19,60.345,19H30.33c-1.525,0-2.767,1.241-2.767,2.767v56.466  c0,1.526,1.241,2.767,2.767,2.767h39.34c1.525,0,2.767-1.241,2.767-2.767V29.354c0-0.015-0.008-0.027-0.008-0.042  C72.425,29.242,72.405,29.178,72.387,29.11z M61.345,22.152l7.355,6.202h-7.355V22.152z M69.67,79H30.33  c-0.423,0-0.767-0.344-0.767-0.767V21.767c0-0.423,0.344-0.767,0.767-0.767h29.015v8.354c0,0.552,0.447,1,1,1h10.092v47.879  C70.437,78.656,70.093,79,69.67,79z"/><path d="M48.554,41.037V24.677c0-0.552-0.447-1-1-1H33.879c-0.553,0-1,0.448-1,1v16.359c0,0.552,0.447,1,1,1h13.675  C48.106,42.037,48.554,41.589,48.554,41.037z M40.632,33.517c-0.974,0-1.767-0.793-1.767-1.768s0.793-1.767,1.767-1.767  c0.975,0,1.768,0.792,1.768,1.767S41.606,33.517,40.632,33.517z M39.676,36.045h1.912c1.113,0,2.02,0.906,2.02,2.02v1.352h-5.951  v-1.352C37.656,36.951,38.563,36.045,39.676,36.045z M46.554,40.037h-0.946v-1.972c0-1.612-0.96-2.996-2.333-3.636  c0.693-0.684,1.125-1.631,1.125-2.679c0-2.077-1.69-3.767-3.768-3.767s-3.767,1.69-3.767,3.767c0,1.048,0.431,1.996,1.124,2.679  c-1.373,0.64-2.333,2.024-2.333,3.636v1.972h-0.777V25.677h11.675V40.037z"/><path d="M43.563,67.621h-7.529c-0.553,0-1,0.448-1,1s0.447,1,1,1h7.529c0.553,0,1-0.448,1-1S44.116,67.621,43.563,67.621z"/><path d="M61.149,67.621h-6.091c-0.553,0-1,0.448-1,1s0.447,1,1,1h6.091c0.553,0,1-0.448,1-1S61.702,67.621,61.149,67.621z"/><path d="M50,5C25.187,5,5,25.187,5,50s20.187,45,45,45s45-20.187,45-45S74.813,5,50,5z M50,92C26.841,92,8,73.159,8,50  S26.841,8,50,8s42,18.841,42,42S73.159,92,50,92z"/></svg>